<?xml version='1.0' encoding='utf-8'?>
<svg xmlns="http://www.w3.org/2000/svg" fill="none" viewBox="0 0 30 30"> <path d="m3.75 5c0-0.69036 0.55964-1.25 1.25-1.25h5c0.6904 0 1.25 0.55964 1.25 1.25s-0.5596 1.25-1.25 1.25h-1.9822l4.1161 4.1161c0.4881 0.4882 0.4881 1.2796 0 1.7678-0.4882 0.4881-1.2796 0.4881-1.7678 0l-4.1161-4.1161v1.9822c0 0.6904-0.55964 1.25-1.25 1.25s-1.25-0.5596-1.25-1.25v-5zm16.25-1.25h5c0.6904 0 1.25 0.55964 1.25 1.25v5c0 0.6904-0.5596 1.25-1.25 1.25s-1.25-0.5596-1.25-1.25v-1.9822l-4.1161 4.1161c-0.4882 0.4881-1.2796 0.4881-1.7678 0-0.4881-0.4882-0.4881-1.2796 0-1.7678l4.1161-4.1161h-1.9822c-0.6904 0-1.25-0.55964-1.25-1.25s0.5596-1.25 1.25-1.25zm-7.8661 14.116c0.4881 0.4882 0.4881 1.2796 0 1.7678l-4.1161 4.1161h1.9822c0.6904 0 1.25 0.5596 1.25 1.25s-0.5596 1.25-1.25 1.25h-5c-0.69036 0-1.25-0.5596-1.25-1.25v-5c0-0.6904 0.55964-1.25 1.25-1.25s1.25 0.5596 1.25 1.25v1.9822l4.1161-4.1161c0.4882-0.4881 1.2796-0.4881 1.7678 0zm5.7322 0c0.4882-0.4881 1.2796-0.4881 1.7678 0l4.1161 4.1161v-1.9822c0-0.6904 0.5596-1.25 1.25-1.25s1.25 0.5596 1.25 1.25v5c0 0.6904-0.5596 1.25-1.25 1.25h-5c-0.6904 0-1.25-0.5596-1.25-1.25s0.5596-1.25 1.25-1.25h1.9822l-4.1161-4.1161c-0.4881-0.4882-0.4881-1.2796 0-1.7678z" clip-rule="evenodd" fill="#009D3B" fill-rule="evenodd"/> </svg>